# xmcd CD database file
#
# Track frame offsets:
#	150
#	14971
#	27445
#	41162
#	53257
#	66026
#	78822
#	92171
#	105408
#	117739
#	130925
#	143017
#	155403
#	167380
#	181787
#	195756
#	208668
#	221804
#	235015
#
# Disc length: 3282 seconds
#
# Revision: 0
# Processed by: cddbd v1.5.1PL0 Copyright (c) Steve Scherf et al.
# Submitted via: CDex 1.60beta1
#
DISCID=fa0cd013
DTITLE=T-Bone Walker - Best Of Black and White and Imperial Years
DYEAR=1952
DGENRE=Blues
TTITLE0=T-Bone Blues
TTITLE1=I'm In An Awful Mood
TTITLE2=Stormy Monday
TTITLE3=She's My Old Time Used To Be
TTITLE4=Hypin' Woman Blues
TTITLE5=Prison Blues
TTITLE6=I'm Still In Love With You
TTITLE7=You're My Best Poker Hand
TTITLE8=Glamour Girl
TTITLE9=You Don't Love Me
TTITLE10=Alimony Blues
TTITLE11=Life Is Too Short
TTITLE12=Tell Me What's The Reason
TTITLE13=Cold Cold Feeling
TTITLE14=Street Walkin' Woman
TTITLE15=Blue Mood
TTITLE16=Love Is Just A Gamble
TTITLE17=High Society
TTITLE18=In The Evening When The Sun Goes Down
EXTD=YEAR: 1952
EXTT0=
EXTT1=
EXTT2=
EXTT3=
EXTT4=
EXTT5=
EXTT6=
EXTT7=
EXTT8=
EXTT9=
EXTT10=
EXTT11=
EXTT12=
EXTT13=
EXTT14=
EXTT15=
EXTT16=
EXTT17=
EXTT18=
PLAYORDER=
